<?xml version="1.0" standalone="no"?>
<!DOCTYPE svg PUBLIC "-//W3C//DTD SVG 20010904//EN"
 "http://www.w3.org/TR/2001/REC-SVG-20010904/DTD/svg10.dtd">
<svg version="1.0" xmlns="http://www.w3.org/2000/svg"
 width="205.000000pt" height="54.000000pt" viewBox="0 0 205.000000 54.000000"
 preserveAspectRatio="xMidYMid meet">

<g transform="translate(0.000000,54.000000) scale(0.100000,-0.100000)"
fill="#000000" stroke="none">
<path d="M245 486 c-60 -28 -87 -56 -114 -116 -40 -87 -22 -180 49 -250 93
-94 227 -94 320 0 115 115 83 297 -64 366 -66 31 -127 31 -191 0z m209 -43
c55 -39 81 -93 81 -168 0 -73 -27 -123 -88 -163 -34 -23 -52 -27 -108 -27 -59
0 -73 4 -110 30 -102 73 -117 217 -31 303 47 47 91 62 161 57 40 -3 66 -12 95
-32z"/>
<path d="M230 410 c0 -5 20 -37 45 -71 48 -66 53 -80 31 -98 -11 -9 -19 -9
-35 1 -18 11 -26 10 -49 -2 -15 -9 -28 -26 -30 -39 -4 -29 24 -61 54 -61 26 0
37 10 63 60 10 19 24 35 31 35 7 0 21 -16 31 -35 26 -50 37 -60 63 -60 48 0
73 61 38 93 -21 19 -57 22 -67 7 -13 -20 -26 -8 -92 85 -63 89 -83 109 -83 85z
m44 -202 c7 -12 6 -21 -3 -32 -18 -22 -38 -20 -51 3 -7 15 -6 24 6 36 19 18
33 16 48 -7z m190 0 c8 -14 7 -21 -6 -34 -30 -30 -75 9 -48 42 16 18 39 15 54
-8z"/>
<path d="M397 366 c-20 -30 -33 -57 -28 -60 9 -6 81 86 81 104 0 21 -17 7 -53
-44z"/>
<path d="M638 383 c8 -3 12 -29 12 -78 0 -49 -4 -75 -12 -78 -7 -3 19 -6 58
-6 65 -1 72 1 77 20 5 19 4 20 -12 5 -10 -9 -30 -16 -44 -16 -24 0 -27 4 -27
35 0 37 8 43 28 23 9 -9 12 -6 12 17 0 23 -3 26 -12 17 -20 -20 -28 -14 -28
23 0 32 2 35 30 35 17 0 33 -7 39 -17 9 -16 10 -16 11 5 0 21 -4 22 -72 21
-40 0 -67 -3 -60 -6z"/>
<path d="M1425 374 c-25 -26 -14 -56 30 -81 46 -26 52 -54 15 -64 -24 -7 -24
-7 -2 -8 21 -1 62 30 62 47 0 18 -33 53 -66 68 -39 19 -40 35 -3 45 22 7 23 7
2 8 -12 1 -29 -6 -38 -15z"/>
<path d="M1648 308 c2 -56 0 -80 -7 -73 -5 6 -11 28 -13 49 -4 47 -25 64 -64
51 -28 -10 -35 -26 -15 -33 6 -2 11 3 11 12 0 9 6 16 14 16 9 0 14 -14 14 -45
1 -25 4 -49 6 -54 3 -5 28 -9 55 -9 46 -2 49 0 43 21 -5 22 -5 22 15 -2 25
-30 68 -23 85 14 26 57 -45 113 -84 65 l-18 -22 0 46 c0 41 -2 46 -22 46 -22
0 -23 -3 -20 -82z m112 -28 c0 -37 -4 -50 -14 -50 -19 0 -29 33 -21 70 11 51
35 37 35 -20z"/>
<path d="M1501 363 c7 -10 15 -20 16 -22 2 -2 3 5 3 17 0 14 -6 22 -16 22 -14
0 -15 -3 -3 -17z"/>
<path d="M801 311 c12 -16 19 -37 16 -45 -4 -9 -1 -15 6 -13 7 1 11 -6 11 -15
-1 -13 6 -18 27 -18 l28 0 -29 51 c-17 28 -28 55 -25 60 4 5 -8 9 -25 9 l-31
0 22 -29z"/>
<path d="M854 331 c3 -5 15 -7 27 -4 20 6 20 3 17 -81 -3 -86 -3 -86 22 -86
l25 0 -3 90 -3 90 -45 0 c-25 0 -43 -4 -40 -9z"/>
<path d="M963 329 c11 -7 17 -22 17 -49 0 -27 -6 -42 -17 -49 -24 -14 2 -14
28 -1 38 21 18 110 -24 110 -20 -1 -20 -2 -4 -11z"/>
<path d="M1025 280 c0 -57 1 -60 25 -60 24 0 25 2 22 60 -3 54 -6 60 -25 60
-20 0 -22 -5 -22 -60z"/>
<path d="M1086 331 c-3 -5 1 -14 9 -21 8 -7 15 -23 15 -36 0 -22 23 -54 40
-54 5 0 16 3 25 6 14 6 13 8 -6 18 -35 18 -34 34 3 38 52 5 105 -39 66 -55 -8
-3 -7 -6 4 -6 9 -1 19 3 23 9 3 5 13 6 21 3 26 -10 0 31 -38 61 -34 26 -32 49
2 28 11 -7 20 -8 20 -3 0 15 -40 24 -54 12 -10 -9 -21 -8 -40 0 -19 9 -29 9
-40 0 -10 -8 -16 -9 -21 -1 -8 12 -22 13 -29 1z m88 -17 c9 -23 8 -24 -14 -24
-19 0 -27 20 -13 33 11 11 20 8 27 -9z"/>
<path d="M1292 328 c-19 -19 -14 -35 19 -59 30 -21 31 -23 13 -37 -19 -13 -19
-14 0 -10 10 1 24 11 30 21 9 16 6 23 -22 47 -22 18 -30 30 -22 35 6 4 17 1
25 -5 9 -7 15 -8 15 -2 0 9 -22 22 -39 22 -4 0 -12 -5 -19 -12z"/>
<path d="M1805 280 c0 -60 0 -60 30 -60 22 0 26 3 17 12 -23 23 -12 88 15 88
12 0 14 -11 11 -50 -3 -44 -1 -50 17 -50 18 0 20 5 17 56 -4 60 -17 73 -51 54
-14 -7 -21 -7 -21 0 0 5 -8 10 -17 10 -15 0 -18 -10 -18 -60z"/>
<path d="M1545 270 c-19 -21 -14 -50 9 -50 19 0 30 17 16 25 -7 4 -7 12 0 26
14 25 -2 25 -25 -1z"/>
<path d="M1200 245 c0 -8 4 -15 10 -15 5 0 7 7 4 15 -4 8 -8 15 -10 15 -2 0
-4 -7 -4 -15z"/>
<path d="M1410 245 c0 -8 7 -15 16 -15 14 0 14 3 4 15 -7 8 -14 15 -16 15 -2
0 -4 -7 -4 -15z"/>
<path d="M790 230 c-12 -8 -10 -10 8 -10 13 0 20 4 17 10 -7 12 -6 12 -25 0z"/>
</g>
</svg>
